<svg xmlns="http://www.w3.org/2000/svg" xmlns:xlink="http://www.w3.org/1999/xlink" width="1200" height="800" viewBox="0 0 1200 800"><defs><clipPath id="a"><polyline points="1200 0 1200 800 0 800" fill="none"/></clipPath></defs><rect width="1200" height="800" fill="#039"/><polygon points="600 88.89 590.02 119.6 557.73 119.6 583.85 138.58 573.88 169.29 600 150.31 626.12 169.29 616.15 138.58 642.27 119.6 609.98 119.6 600 88.89" fill="#fc0"/><polygon points="609.98 652.93 600 622.22 590.02 652.93 557.73 652.93 583.85 671.91 573.88 702.62 600 683.64 626.12 702.62 616.15 671.91 642.27 652.93 609.98 652.93" fill="#fc0"/><polygon points="333.33 416.98 359.46 435.96 349.48 405.25 375.6 386.27 343.31 386.27 333.33 355.56 323.36 386.27 291.06 386.27 317.19 405.25 307.21 435.96 333.33 416.98" fill="#fc0"/><polygon points="466.67 124.61 456.69 155.33 424.4 155.33 450.52 174.31 440.54 205.02 466.67 186.04 492.79 205.02 482.81 174.31 508.94 155.33 476.64 155.33 466.67 124.61" fill="#fc0"/><polygon points="369.06 222.22 359.08 252.93 326.79 252.93 352.92 271.91 342.94 302.62 369.06 283.64 395.18 302.62 385.2 271.91 411.33 252.93 379.04 252.93 369.06 222.22" fill="#fc0"/><polygon points="379.04 519.6 369.06 488.89 359.08 519.6 326.79 519.6 352.92 538.58 342.94 569.29 369.06 550.31 395.18 569.29 385.2 538.58 411.33 519.6 379.04 519.6" fill="#fc0"/><polygon points="476.64 617.21 466.67 586.5 456.69 617.21 424.4 617.21 450.52 636.19 440.54 666.9 466.67 647.92 492.79 666.9 482.81 636.19 508.94 617.21 476.64 617.21" fill="#fc0"/><polygon points="908.94 386.27 876.64 386.27 866.67 355.56 856.69 386.27 824.4 386.27 850.52 405.25 840.54 435.96 866.67 416.98 892.79 435.96 882.81 405.25 908.94 386.27" fill="#fc0"/><polygon points="733.33 124.61 723.36 155.33 691.06 155.33 717.19 174.31 707.21 205.02 733.33 186.04 759.46 205.02 749.48 174.31 775.6 155.33 743.31 155.33 733.33 124.61" fill="#fc0"/><polygon points="814.79 271.91 804.82 302.62 830.94 283.64 857.06 302.62 847.09 271.91 873.21 252.93 840.92 252.93 830.94 222.22 820.96 252.93 788.67 252.93 814.79 271.91" fill="#fc0"/><polygon points="840.92 519.6 830.94 488.89 820.96 519.6 788.67 519.6 814.79 538.58 804.82 569.29 830.94 550.31 857.06 569.29 847.09 538.58 873.21 519.6 840.92 519.6" fill="#fc0"/><polygon points="743.31 617.21 733.33 586.5 723.36 617.21 691.06 617.21 717.19 636.19 707.21 666.9 733.33 647.92 759.46 666.9 749.48 636.19 775.6 617.21 743.31 617.21" fill="#fc0"/><g clip-path="url(#a)"><rect width="1200" height="800" fill="#005bbb"/><rect y="400" width="1200" height="400" fill="#ffd500"/></g></svg>